<svg width="64" height="6" viewBox="0 0 64 6" fill="none" xmlns="http://www.w3.org/2000/svg">
<path d="M2.916 5.636C1.56 5.636 0.492 4.568 0.492 3.236C0.492 1.916 1.56 0.836 2.916 0.836C4.224 0.836 5.292 1.916 5.292 3.236C5.292 4.568 4.224 5.636 2.916 5.636ZM9.42506 5.636C8.06906 5.636 7.00106 4.568 7.00106 3.236C7.00106 1.916 8.06906 0.836 9.42506 0.836C10.7331 0.836 11.8011 1.916 11.8011 3.236C11.8011 4.568 10.7331 5.636 9.42506 5.636ZM15.9341 5.636C14.5781 5.636 13.5101 4.568 13.5101 3.236C13.5101 1.916 14.5781 0.836 15.9341 0.836C17.2421 0.836 18.3101 1.916 18.3101 3.236C18.3101 4.568 17.2421 5.636 15.9341 5.636ZM22.4432 5.636C21.0872 5.636 20.0192 4.568 20.0192 3.236C20.0192 1.916 21.0872 0.836 22.4432 0.836C23.7512 0.836 24.8192 1.916 24.8192 3.236C24.8192 4.568 23.7512 5.636 22.4432 5.636ZM28.9523 5.636C27.5963 5.636 26.5283 4.568 26.5283 3.236C26.5283 1.916 27.5963 0.836 28.9523 0.836C30.2603 0.836 31.3283 1.916 31.3283 3.236C31.3283 4.568 30.2603 5.636 28.9523 5.636ZM35.4613 5.636C34.1053 5.636 33.0373 4.568 33.0373 3.236C33.0373 1.916 34.1053 0.836 35.4613 0.836C36.7693 0.836 37.8373 1.916 37.8373 3.236C37.8373 4.568 36.7693 5.636 35.4613 5.636ZM41.9704 5.636C40.6144 5.636 39.5464 4.568 39.5464 3.236C39.5464 1.916 40.6144 0.836 41.9704 0.836C43.2784 0.836 44.3464 1.916 44.3464 3.236C44.3464 4.568 43.2784 5.636 41.9704 5.636ZM48.4794 5.636C47.1234 5.636 46.0554 4.568 46.0554 3.236C46.0554 1.916 47.1234 0.836 48.4794 0.836C49.7874 0.836 50.8554 1.916 50.8554 3.236C50.8554 4.568 49.7874 5.636 48.4794 5.636ZM54.9885 5.636C53.6325 5.636 52.5645 4.568 52.5645 3.236C52.5645 1.916 53.6325 0.836 54.9885 0.836C56.2965 0.836 57.3645 1.916 57.3645 3.236C57.3645 4.568 56.2965 5.636 54.9885 5.636ZM61.4976 5.636C60.1416 5.636 59.0736 4.568 59.0736 3.236C59.0736 1.916 60.1416 0.836 61.4976 0.836C62.8056 0.836 63.8736 1.916 63.8736 3.236C63.8736 4.568 62.8056 5.636 61.4976 5.636Z" fill="#AAAFAE"/>
</svg>
