<svg width="21" height="21" viewBox="0 0 21 21" fill="none" xmlns="http://www.w3.org/2000/svg">
<path d="M18.6712 8.86794H18V8.83335H10.5V12.1667H15.2096C14.5225 14.1071 12.6762 15.5 10.5 15.5C7.73874 15.5 5.49999 13.2613 5.49999 10.5C5.49999 7.73877 7.73874 5.50002 10.5 5.50002C11.7746 5.50002 12.9342 5.98085 13.8171 6.76627L16.1742 4.40919C14.6858 3.0221 12.695 2.16669 10.5 2.16669C5.89791 2.16669 2.16666 5.89794 2.16666 10.5C2.16666 15.1021 5.89791 18.8334 10.5 18.8334C15.1021 18.8334 18.8333 15.1021 18.8333 10.5C18.8333 9.94127 18.7758 9.39585 18.6712 8.86794Z" fill="#FFC107"/>
<path d="M3.1275 6.62127L5.86542 8.62919C6.60625 6.79502 8.40042 5.50002 10.5 5.50002C11.7746 5.50002 12.9342 5.98085 13.8171 6.76627L16.1742 4.40919C14.6858 3.0221 12.695 2.16669 10.5 2.16669C7.29917 2.16669 4.52334 3.97377 3.1275 6.62127Z" fill="#FF3D00"/>
<path d="M10.5 18.8333C12.6525 18.8333 14.6083 18.0096 16.0871 16.67L13.5079 14.4875C12.6431 15.1451 11.5864 15.5008 10.5 15.5C8.33249 15.5 6.49207 14.1179 5.79874 12.1891L3.08124 14.2829C4.4604 16.9816 7.26124 18.8333 10.5 18.8333Z" fill="#4CAF50"/>
<path d="M18.6712 8.8679H18V8.83331H10.5V12.1666H15.2096C14.8809 13.0902 14.2889 13.8971 13.5067 14.4879L13.5079 14.4871L16.0871 16.6696C15.9046 16.8354 18.8333 14.6666 18.8333 10.5C18.8333 9.94123 18.7758 9.39581 18.6712 8.8679Z" fill="#1976D2"/>
</svg>
